<?xml version="1.0" encoding="UTF-8" standalone="no"?>
<!DOCTYPE svg PUBLIC "-//W3C//DTD SVG 1.0//EN"
 "http://www.w3.org/TR/2001/REC-SVG-20010904/DTD/svg10.dtd" [
 <!ATTLIST svg xmlns:xlink CDATA #FIXED "http://www.w3.org/1999/xlink">
]>
<!-- Generated by Graphviz version 2.12 (Sat May  5 17:55:38 UTC 2007)
     For user: (pichler) Manuel Pichler -->
<!-- Title: class_structure Pages: 1 -->
<svg width="38.81in" height="4.60in"
 xmlns="http://www.w3.org/2000/svg" xmlns:xlink="http://www.w3.org/1999/xlink">
<g id="graph0" class="graph" transform="scale(1.33333 1.33333) rotate(0) translate(4 328)">
<title>class_structure</title>
<polygon style="fill:white;stroke:white;" points="-4,4 -4,-328 2791,-328 2791,4 -4,4"/>
<!-- jdBasePropertyException -->
<g id="node1" class="node"><title>jdBasePropertyException</title>
<ellipse style="fill:none;stroke:#1e90ff;" cx="140" cy="-162" rx="140.198" ry="29.6985"/>
<text text-anchor="middle" x="140" y="-155" style="font-family:Nimbus Roman No9 L;font-weight:regular;font-size:19.44pt;fill:#104e8b;">jdBasePropertyException</text>
</g>
<!-- jdConfig -->
<g id="node2" class="node"><title>jdConfig</title>
<ellipse style="fill:none;stroke:#1e90ff;" cx="283" cy="-294" rx="59.1968" ry="29.6985"/>
<text text-anchor="middle" x="283" y="-287" style="font-family:Nimbus Roman No9 L;font-weight:regular;font-size:19.44pt;fill:#104e8b;">jdConfig</text>
</g>
<!-- jdBase -->
<g id="node3" class="node"><title>jdBase</title>
<ellipse style="fill:none;stroke:#1e90ff;" cx="409" cy="-294" rx="49.1965" ry="29.6985"/>
<text text-anchor="middle" x="409" y="-287" style="font-family:Nimbus Roman No9 L;font-weight:regular;font-size:19.44pt;fill:#104e8b;">jdBase</text>
</g>
<!-- jdWidget -->
<g id="node4" class="node"><title>jdWidget</title>
<ellipse style="fill:none;stroke:#1e90ff;" cx="552" cy="-162" rx="62.1985" ry="29.6985"/>
<text text-anchor="middle" x="552" y="-155" style="font-family:Nimbus Roman No9 L;font-weight:regular;font-size:19.44pt;fill:#104e8b;">jdWidget</text>
</g>
<!-- jdWidgetFinder -->
<g id="node10" class="node"><title>jdWidgetFinder</title>
<ellipse style="fill:none;stroke:#1e90ff;" cx="336" cy="-30" rx="93.1974" ry="29.6985"/>
<text text-anchor="middle" x="336" y="-23" style="font-family:Nimbus Roman No9 L;font-weight:regular;font-size:19.44pt;fill:#104e8b;">jdWidgetFinder</text>
</g>
<!-- jdWidget&#45;&gt;jdWidgetFinder -->
<g id="edge8" class="edge"><title>jdWidget&#45;&gt;jdWidgetFinder</title>
<path style="fill:none;stroke:#36648b;" d="M505,-134C467,-111 415,-78 379,-56"/>
<polygon style="fill:#36648b;stroke:#36648b;" points="503.559,-137.203 514,-139 506.958,-131.084 503.559,-137.203"/>
</g>
<!-- jdWidgetExample -->
<g id="node17" class="node"><title>jdWidgetExample</title>
<ellipse style="fill:none;stroke:#1e90ff;" cx="552" cy="-30" rx="105.198" ry="29.6985"/>
<text text-anchor="middle" x="552" y="-23" style="font-family:Nimbus Roman No9 L;font-weight:regular;font-size:19.44pt;fill:#104e8b;">jdWidgetExample</text>
</g>
<!-- jdWidget&#45;&gt;jdWidgetExample -->
<g id="edge18" class="edge"><title>jdWidget&#45;&gt;jdWidgetExample</title>
<path style="fill:none;stroke:#36648b;" d="M552,-122C552,-102 552,-78 552,-60"/>
<polygon style="fill:#36648b;stroke:#36648b;" points="548.5,-122 552,-132 555.5,-122 548.5,-122"/>
</g>
<!-- jdWidgetStarterbar -->
<g id="node18" class="node"><title>jdWidgetStarterbar</title>
<ellipse style="fill:none;stroke:#1e90ff;" cx="785" cy="-30" rx="110.198" ry="29.6985"/>
<text text-anchor="middle" x="785" y="-23" style="font-family:Nimbus Roman No9 L;font-weight:regular;font-size:19.44pt;fill:#104e8b;">jdWidgetStarterbar</text>
</g>
<!-- jdWidget&#45;&gt;jdWidgetStarterbar -->
<g id="edge20" class="edge"><title>jdWidget&#45;&gt;jdWidgetStarterbar</title>
<path style="fill:none;stroke:#36648b;" d="M601,-134C642,-112 698,-79 738,-57"/>
<polygon style="fill:#36648b;stroke:#36648b;" points="599.042,-131.084 592,-139 602.441,-137.203 599.042,-131.084"/>
</g>
<!-- jdWidgetFinderAnimationJump -->
<g id="node5" class="node"><title>jdWidgetFinderAnimationJump</title>
<ellipse style="fill:none;stroke:#1e90ff;" cx="803" cy="-162" rx="171.198" ry="29.6985"/>
<text text-anchor="middle" x="803" y="-155" style="font-family:Nimbus Roman No9 L;font-weight:regular;font-size:19.44pt;fill:#104e8b;">jdWidgetFinderAnimationJump</text>
</g>
<!-- jdWidgetFinderEffect -->
<g id="node6" class="node"><title>jdWidgetFinderEffect</title>
<ellipse style="fill:none;stroke:#1e90ff;" cx="1142" cy="-294" rx="123.198" ry="29.6985"/>
<text text-anchor="middle" x="1142" y="-287" style="font-family:Nimbus Roman No9 L;font-weight:regular;font-size:19.44pt;fill:#104e8b;">jdWidgetFinderEffect</text>
</g>
<!-- jdWidgetFinderEffectScale -->
<g id="node9" class="node"><title>jdWidgetFinderEffectScale</title>
<ellipse style="fill:none;stroke:#1e90ff;" cx="1142" cy="-162" rx="150.198" ry="29.6985"/>
<text text-anchor="middle" x="1142" y="-155" style="font-family:Nimbus Roman No9 L;font-weight:regular;font-size:19.44pt;fill:#104e8b;">jdWidgetFinderEffectScale</text>
</g>
<!-- jdWidgetFinderEffect&#45;&gt;jdWidgetFinderEffectScale -->
<g id="edge6" class="edge"><title>jdWidgetFinderEffect&#45;&gt;jdWidgetFinderEffectScale</title>
<path style="fill:none;stroke:#36648b;" d="M1142,-254C1142,-234 1142,-210 1142,-192"/>
<polygon style="fill:#36648b;stroke:#36648b;" points="1138.5,-254 1142,-264 1145.5,-254 1138.5,-254"/>
</g>
<!-- jdWidgetFinderCommand -->
<g id="node7" class="node"><title>jdWidgetFinderCommand</title>
<ellipse style="fill:none;stroke:#1e90ff;" cx="1427" cy="-294" rx="144.198" ry="29.6985"/>
<text text-anchor="middle" x="1427" y="-287" style="font-family:Nimbus Roman No9 L;font-weight:regular;font-size:19.44pt;fill:#104e8b;">jdWidgetFinderCommand</text>
</g>
<!-- jdWidgetFinderEffectSizeStruct -->
<g id="node8" class="node"><title>jdWidgetFinderEffectSizeStruct</title>
<ellipse style="fill:none;stroke:#1e90ff;" cx="1762" cy="-294" rx="173.198" ry="29.6985"/>
<text text-anchor="middle" x="1762" y="-287" style="font-family:Nimbus Roman No9 L;font-weight:regular;font-size:19.44pt;fill:#104e8b;">jdWidgetFinderEffectSizeStruct</text>
</g>
<!-- jdWidgetFinderClockItem -->
<g id="node11" class="node"><title>jdWidgetFinderClockItem</title>
<ellipse style="fill:none;stroke:#1e90ff;" cx="1744" cy="-162" rx="145.198" ry="29.6985"/>
<text text-anchor="middle" x="1744" y="-155" style="font-family:Nimbus Roman No9 L;font-weight:regular;font-size:19.44pt;fill:#104e8b;">jdWidgetFinderClockItem</text>
</g>
<!-- jdWidgetFinderTrashItem -->
<g id="node12" class="node"><title>jdWidgetFinderTrashItem</title>
<ellipse style="fill:none;stroke:#1e90ff;" cx="2386" cy="-30" rx="143.198" ry="29.6985"/>
<text text-anchor="middle" x="2386" y="-23" style="font-family:Nimbus Roman No9 L;font-weight:regular;font-size:19.44pt;fill:#104e8b;">jdWidgetFinderTrashItem</text>
</g>
<!-- jdWidgetFinderSeparatorItem -->
<g id="node13" class="node"><title>jdWidgetFinderSeparatorItem</title>
<ellipse style="fill:none;stroke:#1e90ff;" cx="2069" cy="-162" rx="162.198" ry="29.6985"/>
<text text-anchor="middle" x="2069" y="-155" style="font-family:Nimbus Roman No9 L;font-weight:regular;font-size:19.44pt;fill:#104e8b;">jdWidgetFinderSeparatorItem</text>
</g>
<!-- jdWidgetFinderIconItem -->
<g id="node14" class="node"><title>jdWidgetFinderIconItem</title>
<ellipse style="fill:none;stroke:#1e90ff;" cx="2386" cy="-162" rx="137.198" ry="29.6985"/>
<text text-anchor="middle" x="2386" y="-155" style="font-family:Nimbus Roman No9 L;font-weight:regular;font-size:19.44pt;fill:#104e8b;">jdWidgetFinderIconItem</text>
</g>
<!-- jdWidgetFinderIconItem&#45;&gt;jdWidgetFinderTrashItem -->
<g id="edge12" class="edge"><title>jdWidgetFinderIconItem&#45;&gt;jdWidgetFinderTrashItem</title>
<path style="fill:none;stroke:#36648b;" d="M2386,-122C2386,-102 2386,-78 2386,-60"/>
<polygon style="fill:#36648b;stroke:#36648b;" points="2382.5,-122 2386,-132 2389.5,-122 2382.5,-122"/>
</g>
<!-- jdWidgetFinderBackground -->
<g id="node15" class="node"><title>jdWidgetFinderBackground</title>
<ellipse style="fill:none;stroke:#1e90ff;" cx="2355" cy="-294" rx="152.198" ry="29.6985"/>
<text text-anchor="middle" x="2355" y="-287" style="font-family:Nimbus Roman No9 L;font-weight:regular;font-size:19.44pt;fill:#104e8b;">jdWidgetFinderBackground</text>
</g>
<!-- jdWidgetFinderItem -->
<g id="node16" class="node"><title>jdWidgetFinderItem</title>
<ellipse style="fill:none;stroke:#1e90ff;" cx="2069" cy="-294" rx="116.198" ry="29.6985"/>
<text text-anchor="middle" x="2069" y="-287" style="font-family:Nimbus Roman No9 L;font-weight:regular;font-size:19.44pt;fill:#104e8b;">jdWidgetFinderItem</text>
</g>
<!-- jdWidgetFinderItem&#45;&gt;jdWidgetFinderClockItem -->
<g id="edge10" class="edge"><title>jdWidgetFinderItem&#45;&gt;jdWidgetFinderClockItem</title>
<path style="fill:none;stroke:#36648b;" d="M1997,-265C1941,-242 1863,-211 1809,-188"/>
<polygon style="fill:#36648b;stroke:#36648b;" points="1996.42,-268.536 2007,-269 1999.02,-262.036 1996.42,-268.536"/>
</g>
<!-- jdWidgetFinderItem&#45;&gt;jdWidgetFinderSeparatorItem -->
<g id="edge14" class="edge"><title>jdWidgetFinderItem&#45;&gt;jdWidgetFinderSeparatorItem</title>
<path style="fill:none;stroke:#36648b;" d="M2069,-254C2069,-234 2069,-210 2069,-192"/>
<polygon style="fill:#36648b;stroke:#36648b;" points="2065.5,-254 2069,-264 2072.5,-254 2065.5,-254"/>
</g>
<!-- jdWidgetFinderItem&#45;&gt;jdWidgetFinderIconItem -->
<g id="edge16" class="edge"><title>jdWidgetFinderItem&#45;&gt;jdWidgetFinderIconItem</title>
<path style="fill:none;stroke:#36648b;" d="M2139,-265C2194,-242 2270,-211 2323,-188"/>
<polygon style="fill:#36648b;stroke:#36648b;" points="2137.72,-261.74 2130,-269 2140.56,-268.137 2137.72,-261.74"/>
</g>
<!-- jdWidgetStarterbarIcon -->
<g id="node19" class="node"><title>jdWidgetStarterbarIcon</title>
<ellipse style="fill:none;stroke:#1e90ff;" cx="2656" cy="-294" rx="131.198" ry="29.6985"/>
<text text-anchor="middle" x="2656" y="-287" style="font-family:Nimbus Roman No9 L;font-weight:regular;font-size:19.44pt;fill:#104e8b;">jdWidgetStarterbarIcon</text>
</g>
<!-- Exception -->
<g id="node20" class="node"><title>Exception</title>
<ellipse style="fill:none;stroke:#1e90ff;" cx="140" cy="-294" rx="66.1985" ry="29.6985"/>
<text text-anchor="middle" x="140" y="-287" style="font-family:Nimbus Roman No9 L;font-weight:regular;font-size:19.44pt;fill:#104e8b;">Exception</text>
</g>
<!-- Exception&#45;&gt;jdBasePropertyException -->
<g id="edge2" class="edge"><title>Exception&#45;&gt;jdBasePropertyException</title>
<path style="fill:none;stroke:#36648b;" d="M140,-254C140,-234 140,-210 140,-192"/>
<polygon style="fill:#36648b;stroke:#36648b;" points="136.5,-254 140,-264 143.5,-254 136.5,-254"/>
</g>
<!-- jdWidgetFinderAnimation -->
<g id="node21" class="node"><title>jdWidgetFinderAnimation</title>
<polygon style="fill:none;stroke:#ff7f00;" points="940,-315 666,-315 666,-273 940,-273 940,-315"/>
<text text-anchor="middle" x="803" y="-287" style="font-family:Nimbus Roman No9 L;font-weight:regular;font-size:19.44pt;fill:#cd6600;">jdWidgetFinderAnimation</text>
</g>
<!-- jdWidgetFinderAnimation&#45;&gt;jdWidgetFinderAnimationJump -->
<g id="edge23" class="edge"><title>jdWidgetFinderAnimation&#45;&gt;jdWidgetFinderAnimationJump</title>
<path style="fill:none;stroke:#ee9a49;" d="M803,-263C803,-241 803,-213 803,-192"/>
<polygon style="fill:#ee9a49;stroke:#ee9a49;" points="799.5,-263 803,-273 806.5,-263 799.5,-263"/>
</g>
<!-- GtkWindow -->
<g id="node23" class="node"><title>GtkWindow</title>
<ellipse style="fill:none;stroke:black;" cx="552" cy="-294" rx="76.1985" ry="29.6985"/>
<text text-anchor="middle" x="552" y="-287" style="font-family:Nimbus Roman No9 L;font-weight:regular;font-size:19.44pt;">GtkWindow</text>
</g>
<!-- GtkWindow&#45;&gt;jdWidget -->
<g id="edge4" class="edge"><title>GtkWindow&#45;&gt;jdWidget</title>
<path style="fill:none;stroke:#36648b;" d="M552,-254C552,-234 552,-210 552,-192"/>
<polygon style="fill:#36648b;stroke:#36648b;" points="548.5,-254 552,-264 555.5,-254 548.5,-254"/>
</g>
</g>
</svg>
